2200 0 1 0           
15 SolidWorks 2016 12 ACIS 22.0 NT 24 Wed Feb 22 14:59:58 2017 
1 9.9999999999999995e-007 1e-010 
-0 body $1 -1 -1 $-1 $2 $-1 $-1 F #
-1 name_attrib-gen-attrib $-1 -1 $-1 $-1 $0 2 1 1 1 1 1 1 1 1 1 1 1 1 1 0 1 1 1 @16 mating_ring(mks) #
-2 lump $3 -1 -1 $-1 $-1 $4 $0 F #
-3 rgb_color-st-attrib $-1 -1 $-1 $-1 $2 2 1 2 1 1 1 1 1 1 1 1 1 1 1 0 1 1 1 0.89803921568627454 0.91764705882352937 0.92941176470588238 #
-4 shell $-1 -1 -1 $-1 $-1 $-1 $5 $-1 $2 F #
-5 face $6 -1 -1 $-1 $7 $8 $4 $-1 $9 reversed single F T -1.0783614491366602 -0.44678250176823914 -3.1415926535897931 0 #
-6 integer_attrib-name_attrib-gen-attrib $-1 -1 $-1 $-1 $5 2 1 2 1 1 1 1 1 1 1 1 1 1 1 0 1 1 1 @8 Revolve1 0 #
-7 face $10 -1 -1 $-1 $11 $12 $4 $-1 $13 reversed single F T -0.38585761516347922 -0.29494852425438828 -3.1415926535897931 0 #
-8 loop $-1 -1 -1 $-1 $-1 $14 $5 F unknown #
-9 cone-surface $-1 -1 -1 $-1 0 65.052154419169028 0 0 1 0 0 0 60.325000000000003 1 I I 0 1 60.325000000000003 forward I I I I #
-10 integer_attrib-name_attrib-gen-attrib $-1 -1 $-1 $-1 $7 2 1 2 1 1 1 1 1 1 1 1 1 1 1 0 1 1 1 @8 Revolve1 0 #
-11 face $15 -1 -1 $-1 $16 $17 $4 $-1 $18 forward single F T -0.54299424059115409 -0.28212467537376273 0 3.1415926535897931 #
-12 loop $-1 -1 -1 $-1 $-1 $19 $7 F unknown #
-13 cone-surface $-1 -1 -1 $-1 0 65.052154419169028 0 0 1 0 0 0 69.850000000000009 1 I I 0 1 69.850000000000009 forward I I I I #
-14 coedge $-1 -1 -1 $-1 $20 $21 $22 $23 reversed $8 $-1 #
-15 integer_attrib-name_attrib-gen-attrib $-1 -1 $-1 $-1 $11 2 1 2 1 1 1 1 1 1 1 1 1 1 1 0 1 1 1 @8 Revolve1 0 #
-16 face $24 -1 -1 $-1 $25 $26 $4 $-1 $27 forward single F T -1.0244433766798273 -0.62444337667982719 0 3.1415926535897931 #
-17 loop $-1 -1 -1 $-1 $-1 $28 $11 F unknown #
-18 cone-surface $-1 -1 -1 $-1 0 65.052154419169028 0 0 1 0 0 0 73.025000000000006 1 I I 0 1 73.025000000000006 forward I I I I #
-19 coedge $-1 -1 -1 $-1 $29 $30 $31 $32 reversed $12 $-1 #
-20 coedge $-1 -1 -1 $-1 $33 $14 $34 $35 forward $8 $-1 #
-21 coedge $-1 -1 -1 $-1 $14 $33 $36 $37 reversed $8 $-1 #
-22 coedge $-1 -1 -1 $-1 $38 $38 $14 $23 forward $39 $-1 #
-23 edge $-1 -1 -1 $-1 $40 -3.1415926535897931 $41 0 $22 $42 forward @7 unknown F #
-24 integer_attrib-name_attrib-gen-attrib $-1 -1 $-1 $-1 $16 2 1 2 1 1 1 1 1 1 1 1 1 1 1 0 1 1 1 @8 Revolve1 0 #
-25 face $43 -1 -1 $-1 $44 $39 $4 $-1 $45 forward single F F #
-26 loop $-1 -1 -1 $-1 $-1 $46 $16 F unknown #
-27 cone-surface $-1 -1 -1 $-1 0 65.052154419169028 0 0 1 0 0 0 63.5 1 I I 0 1 63.5 forward I I I I #
-28 coedge $-1 -1 -1 $-1 $47 $48 $49 $50 forward $17 $-1 #
-29 coedge $-1 -1 -1 $-1 $51 $19 $52 $53 forward $12 $-1 #
-30 coedge $-1 -1 -1 $-1 $19 $51 $54 $55 reversed $12 $-1 #
-31 coedge $-1 -1 -1 $-1 $56 $56 $19 $32 forward $57 $-1 #
-32 edge $-1 -1 -1 $-1 $58 -3.1415926535897931 $59 0 $31 $60 forward @7 unknown F #
-33 coedge $-1 -1 -1 $-1 $21 $20 $61 $62 forward $8 $-1 #
-34 coedge $-1 -1 -1 $-1 $63 $64 $20 $35 reversed $65 $-1 #
-35 edge $-1 -1 -1 $-1 $40 -0.065052154419169034 $66 -0.026952154419169028 $20 $67 forward @7 unknown F #
-36 coedge $-1 -1 -1 $-1 $64 $63 $21 $37 forward $65 $-1 #
-37 edge $-1 -1 -1 $-1 $41 -0.065052154419169034 $68 -0.026952154419169028 $36 $69 forward @7 unknown F #
-38 coedge $-1 -1 -1 $-1 $22 $22 $63 $70 forward $39 $-1 #
-39 loop $-1 -1 -1 $-1 $71 $38 $25 F unknown #
-40 vertex $-1 -1 -1 $-1 $35 $72 #
-41 vertex $-1 -1 -1 $-1 $23 $73 #
-42 ellipse-curve $-1 -1 -1 $-1 0 0 0 0 1 0 0 0 60.325000000000003 1 I I #
-43 integer_attrib-name_attrib-gen-attrib $-1 -1 $-1 $-1 $25 2 1 2 1 1 1 1 1 1 1 1 1 1 1 0 1 1 1 @8 Revolve1 0 #
-44 face $74 -1 -1 $-1 $75 $76 $4 $-1 $77 forward single F T -1.0244433766798273 -0.62444337667982719 -3.1415926535897931 0 #
-45 plane-surface $-1 -1 -1 $-1 -60.325000000000003 0 0 0 -1 0 0 0 -1000 forward_v I I I I #
-46 coedge $-1 -1 -1 $-1 $78 $79 $80 $81 forward $26 $-1 #
-47 coedge $-1 -1 -1 $-1 $82 $28 $83 $84 forward $17 $-1 #
-48 coedge $-1 -1 -1 $-1 $28 $82 $85 $86 reversed $17 $-1 #
-49 coedge $-1 -1 -1 $-1 $87 $87 $28 $50 reversed $88 $-1 #
-50 edge $-1 -1 -1 $-1 $89 0 $90 3.1415926535897931 $28 $91 forward @7 unknown F #
-51 coedge $-1 -1 -1 $-1 $30 $29 $92 $93 forward $12 $-1 #
-52 coedge $-1 -1 -1 $-1 $94 $95 $29 $53 reversed $96 $-1 #
-53 edge $-1 -1 -1 $-1 $58 -0.026952154419169028 $97 -0.020602154419169027 $29 $98 forward @7 unknown F #
-54 coedge $-1 -1 -1 $-1 $95 $94 $30 $55 forward $96 $-1 #
-55 edge $-1 -1 -1 $-1 $59 -0.026952154419169028 $99 -0.020602154419169027 $54 $100 forward @7 unknown F #
-56 coedge $-1 -1 -1 $-1 $31 $31 $94 $101 forward $57 $-1 #
-57 loop $-1 -1 -1 $-1 $102 $56 $103 F unknown #
-58 vertex $-1 -1 -1 $-1 $53 $104 #
-59 vertex $-1 -1 -1 $-1 $32 $105 #
-60 ellipse-curve $-1 -1 -1 $-1 0 38.100000000000001 0 0 1 0 0 0 69.850000000000009 1 I I #
-61 coedge $-1 -1 -1 $-1 $106 $106 $33 $62 reversed $102 $-1 #
-62 edge $-1 -1 -1 $-1 $66 -3.1415926535897931 $68 0 $33 $107 forward @7 unknown F #
-63 coedge $-1 -1 -1 $-1 $36 $34 $38 $70 reversed $65 $-1 #
-64 coedge $-1 -1 -1 $-1 $34 $36 $106 $108 forward $65 $-1 #
-65 loop $-1 -1 -1 $-1 $-1 $34 $109 F unknown #
-66 vertex $-1 -1 -1 $-1 $35 $110 #
-67 straight-curve $-1 -1 -1 $-1 7.3876818158564085e-015 65.052154419169028 -60.325000000000003 0 1000 0 I I #
-68 vertex $-1 -1 -1 $-1 $62 $111 #
-69 straight-curve $-1 -1 -1 $-1 0 65.052154419169028 60.325000000000003 0 1000 0 I I #
-70 edge $-1 -1 -1 $-1 $41 0 $40 3.1415926535897931 $38 $112 forward @7 unknown F #
-71 loop $-1 -1 -1 $-1 $-1 $80 $25 F unknown #
-72 point $-1 -1 -1 $-1 7.3876818158564085e-015 0 -60.325000000000003 #
-73 point $-1 -1 -1 $-1 0 0 60.325000000000003 #
-74 integer_attrib-name_attrib-gen-attrib $-1 -1 $-1 $-1 $44 2 1 2 1 1 1 1 1 1 1 1 1 1 1 0 1 1 1 @8 Revolve1 0 #
-75 face $113 -1 -1 $-1 $114 $115 $4 $-1 $116 forward single F F #
-76 loop $-1 -1 -1 $-1 $-1 $117 $44 F unknown #
-77 cone-surface $-1 -1 -1 $-1 0 65.052154419169028 0 0 1 0 0 0 63.5 1 I I 0 1 63.5 forward I I I I #
-78 coedge $-1 -1 -1 $-1 $118 $46 $117 $119 forward $26 $-1 #
-79 coedge $-1 -1 -1 $-1 $46 $118 $120 $121 reversed $26 $-1 #
-80 coedge $-1 -1 -1 $-1 $122 $122 $46 $81 reversed $71 $-1 #
-81 edge $-1 -1 -1 $-1 $123 0 $124 3.1415926535897931 $46 $125 forward @7 unknown F #
-82 coedge $-1 -1 -1 $-1 $48 $47 $126 $127 reversed $17 $-1 #
-83 coedge $-1 -1 -1 $-1 $128 $129 $47 $84 reversed $130 $-1 #
-84 edge $-1 -1 -1 $-1 $90 -0.039652154419169028 $131 -0.020602154419169027 $47 $132 forward @7 unknown F #
-85 coedge $-1 -1 -1 $-1 $129 $128 $48 $86 forward $130 $-1 #
-86 edge $-1 -1 -1 $-1 $89 -0.039652154419169028 $133 -0.020602154419169027 $85 $134 forward @7 unknown F #
-87 coedge $-1 -1 -1 $-1 $49 $49 $128 $135 reversed $88 $-1 #
-88 loop $-1 -1 -1 $-1 $-1 $49 $75 F unknown #
-89 vertex $-1 -1 -1 $-1 $135 $136 #
-90 vertex $-1 -1 -1 $-1 $84 $137 #
-91 ellipse-curve $-1 -1 -1 $-1 0 25.399999999999999 0 0 1 0 0 0 73.025000000000006 1 I I #
-92 coedge $-1 -1 -1 $-1 $138 $138 $51 $93 reversed $139 $-1 #
-93 edge $-1 -1 -1 $-1 $97 -3.1415926535897931 $99 0 $51 $140 forward @7 unknown F #
-94 coedge $-1 -1 -1 $-1 $54 $52 $56 $101 reversed $96 $-1 #
-95 coedge $-1 -1 -1 $-1 $52 $54 $138 $141 forward $96 $-1 #
-96 loop $-1 -1 -1 $-1 $-1 $52 $142 F unknown #
-97 vertex $-1 -1 -1 $-1 $53 $143 #
-98 straight-curve $-1 -1 -1 $-1 8.5541578920442634e-015 65.052154419169028 -69.850000000000009 0 1000 0 I I #
-99 vertex $-1 -1 -1 $-1 $93 $144 #
-100 straight-curve $-1 -1 -1 $-1 0 65.052154419169028 69.850000000000009 0 1000 0 I I #
-101 edge $-1 -1 -1 $-1 $59 0 $58 3.1415926535897931 $56 $145 forward @7 unknown F #
-102 loop $-1 -1 -1 $-1 $-1 $106 $103 F unknown #
-103 face $146 -1 -1 $-1 $109 $57 $4 $-1 $147 forward single F F #
-104 point $-1 -1 -1 $-1 8.5541578920442634e-015 38.100000000000001 -69.850000000000009 #
-105 point $-1 -1 -1 $-1 0 38.100000000000001 69.850000000000009 #
-106 coedge $-1 -1 -1 $-1 $61 $61 $64 $108 reversed $102 $-1 #
-107 ellipse-curve $-1 -1 -1 $-1 0 38.100000000000001 0 0 1 0 0 0 60.325000000000003 1 I I #
-108 edge $-1 -1 -1 $-1 $68 0 $66 3.1415926535897931 $64 $148 forward @7 unknown F #
-109 face $149 -1 -1 $-1 $-1 $65 $4 $-1 $150 reversed single F T -1.0783614491366602 -0.44678250176823914 0 3.1415926535897931 #
-110 point $-1 -1 -1 $-1 7.3876818158564085e-015 38.100000000000001 -60.325000000000003 #
-111 point $-1 -1 -1 $-1 0 38.100000000000001 60.325000000000003 #
-112 ellipse-curve $-1 -1 -1 $-1 0 0 0 0 1 0 0 0 60.325000000000003 1 I I #
-113 integer_attrib-name_attrib-gen-attrib $-1 -1 $-1 $-1 $75 2 1 2 1 1 1 1 1 1 1 1 1 1 1 0 1 1 1 @8 Revolve1 0 #
-114 face $151 -1 -1 $-1 $152 $130 $4 $-1 $153 forward single F T -0.54299424059115409 -0.28212467537376273 -3.1415926535897931 0 #
-115 loop $-1 -1 -1 $-1 $88 $154 $75 F unknown #
-116 plane-surface $-1 -1 -1 $-1 -63.5 25.399999999999999 0 0 -1 0 0 0 -1000 forward_v I I I I #
-117 coedge $-1 -1 -1 $-1 $155 $156 $78 $119 reversed $76 $-1 #
-118 coedge $-1 -1 -1 $-1 $79 $78 $154 $157 reversed $26 $-1 #
-119 edge $-1 -1 -1 $-1 $124 -0.065052154419169034 $158 -0.039652154419169028 $78 $159 forward @7 unknown F #
-120 coedge $-1 -1 -1 $-1 $156 $155 $79 $121 forward $76 $-1 #
-121 edge $-1 -1 -1 $-1 $123 -0.065052154419169034 $160 -0.039652154419169028 $120 $161 forward @7 unknown F #
-122 coedge $-1 -1 -1 $-1 $80 $80 $155 $162 reversed $71 $-1 #
-123 vertex $-1 -1 -1 $-1 $162 $163 #
-124 vertex $-1 -1 -1 $-1 $119 $164 #
-125 ellipse-curve $-1 -1 -1 $-1 0 0 0 0 1 0 0 0 63.5 1 I I #
-126 coedge $-1 -1 -1 $-1 $165 $165 $82 $127 forward $166 $-1 #
-127 edge $-1 -1 -1 $-1 $133 0 $131 3.1415926535897931 $126 $167 forward @7 unknown F #
-128 coedge $-1 -1 -1 $-1 $85 $83 $87 $135 forward $130 $-1 #
-129 coedge $-1 -1 -1 $-1 $83 $85 $165 $168 reversed $130 $-1 #
-130 loop $-1 -1 -1 $-1 $-1 $83 $114 F unknown #
-131 vertex $-1 -1 -1 $-1 $84 $169 #
-132 straight-curve $-1 -1 -1 $-1 8.9429832507735478e-015 65.052154419169028 -73.025000000000006 0 1000 0 I I #
-133 vertex $-1 -1 -1 $-1 $168 $170 #
-134 straight-curve $-1 -1 -1 $-1 0 65.052154419169028 73.025000000000006 0 1000 0 I I #
-135 edge $-1 -1 -1 $-1 $90 -3.1415926535897931 $89 0 $128 $171 forward @7 unknown F #
-136 point $-1 -1 -1 $-1 0 25.399999999999999 73.025000000000006 #
-137 point $-1 -1 -1 $-1 8.9429832507735478e-015 25.399999999999999 -73.025000000000006 #
-138 coedge $-1 -1 -1 $-1 $92 $92 $95 $141 reversed $139 $-1 #
-139 loop $-1 -1 -1 $-1 $-1 $138 $152 F unknown #
-140 ellipse-curve $-1 -1 -1 $-1 0 44.450000000000003 0 0 1 0 0 0 69.850000000000009 1 I I #
-141 edge $-1 -1 -1 $-1 $99 0 $97 3.1415926535897931 $95 $172 forward @7 unknown F #
-142 face $173 -1 -1 $-1 $103 $96 $4 $-1 $174 reversed single F T -0.38585761516347922 -0.29494852425438828 0 3.1415926535897931 #
-143 point $-1 -1 -1 $-1 8.5541578920442634e-015 44.450000000000003 -69.850000000000009 #
-144 point $-1 -1 -1 $-1 0 44.450000000000003 69.850000000000009 #
-145 ellipse-curve $-1 -1 -1 $-1 0 38.100000000000001 0 0 1 0 0 0 69.850000000000009 1 I I #
-146 integer_attrib-name_attrib-gen-attrib $-1 -1 $-1 $-1 $103 2 1 2 1 1 1 1 1 1 1 1 1 1 1 0 1 1 1 @8 Revolve1 0 #
-147 plane-surface $-1 -1 -1 $-1 -69.850000000000009 38.100000000000001 0 0 1 0 0 0 1000 forward_v I I I I #
-148 ellipse-curve $-1 -1 -1 $-1 0 38.100000000000001 0 0 1 0 0 0 60.325000000000003 1 I I #
-149 integer_attrib-name_attrib-gen-attrib $-1 -1 $-1 $-1 $109 2 1 2 1 1 1 1 1 1 1 1 1 1 1 0 1 1 1 @8 Revolve1 0 #
-150 cone-surface $-1 -1 -1 $-1 0 65.052154419169028 0 0 1 0 0 0 60.325000000000003 1 I I 0 1 60.325000000000003 forward I I I I #
-151 integer_attrib-name_attrib-gen-attrib $-1 -1 $-1 $-1 $114 2 1 2 1 1 1 1 1 1 1 1 1 1 1 0 1 1 1 @8 Revolve1 0 #
-152 face $175 -1 -1 $-1 $142 $166 $4 $-1 $176 forward single F F #
-153 cone-surface $-1 -1 -1 $-1 0 65.052154419169028 0 0 1 0 0 0 73.025000000000006 1 I I 0 1 73.025000000000006 forward I I I I #
-154 coedge $-1 -1 -1 $-1 $177 $177 $118 $157 forward $115 $-1 #
-155 coedge $-1 -1 -1 $-1 $120 $117 $122 $162 forward $76 $-1 #
-156 coedge $-1 -1 -1 $-1 $117 $120 $177 $178 reversed $76 $-1 #
-157 edge $-1 -1 -1 $-1 $160 0 $158 3.1415926535897931 $154 $179 forward @7 unknown F #
-158 vertex $-1 -1 -1 $-1 $119 $180 #
-159 straight-curve $-1 -1 -1 $-1 7.776507174585693e-015 65.052154419169028 -63.5 0 1000 0 I I #
-160 vertex $-1 -1 -1 $-1 $178 $181 #
-161 straight-curve $-1 -1 -1 $-1 0 65.052154419169028 63.5 0 1000 0 I I #
-162 edge $-1 -1 -1 $-1 $124 -3.1415926535897931 $123 0 $155 $182 forward @7 unknown F #
-163 point $-1 -1 -1 $-1 0 0 63.5 #
-164 point $-1 -1 -1 $-1 7.776507174585693e-015 0 -63.5 #
-165 coedge $-1 -1 -1 $-1 $126 $126 $129 $168 forward $166 $-1 #
-166 loop $-1 -1 -1 $-1 $139 $126 $152 F unknown #
-167 ellipse-curve $-1 -1 -1 $-1 0 44.450000000000003 0 0 1 0 0 0 73.025000000000006 1 I I #
-168 edge $-1 -1 -1 $-1 $131 -3.1415926535897931 $133 0 $165 $183 forward @7 unknown F #
-169 point $-1 -1 -1 $-1 8.9429832507735478e-015 44.450000000000003 -73.025000000000006 #
-170 point $-1 -1 -1 $-1 0 44.450000000000003 73.025000000000006 #
-171 ellipse-curve $-1 -1 -1 $-1 0 25.399999999999999 0 0 1 0 0 0 73.025000000000006 1 I I #
-172 ellipse-curve $-1 -1 -1 $-1 0 44.450000000000003 0 0 1 0 0 0 69.850000000000009 1 I I #
-173 integer_attrib-name_attrib-gen-attrib $-1 -1 $-1 $-1 $142 2 1 2 1 1 1 1 1 1 1 1 1 1 1 0 1 1 1 @8 Revolve1 0 #
-174 cone-surface $-1 -1 -1 $-1 0 65.052154419169028 0 0 1 0 0 0 69.850000000000009 1 I I 0 1 69.850000000000009 forward I I I I #
-175 integer_attrib-name_attrib-gen-attrib $-1 -1 $-1 $-1 $152 2 1 2 1 1 1 1 1 1 1 1 1 1 1 0 1 1 1 @8 Revolve1 0 #
-176 plane-surface $-1 -1 -1 $-1 -73.025000000000006 44.450000000000003 0 0 1 0 0 0 1000 forward_v I I I I #
-177 coedge $-1 -1 -1 $-1 $154 $154 $156 $178 forward $115 $-1 #
-178 edge $-1 -1 -1 $-1 $158 -3.1415926535897931 $160 0 $177 $184 forward @7 unknown F #
-179 ellipse-curve $-1 -1 -1 $-1 0 25.399999999999999 0 0 1 0 0 0 63.5 1 I I #
-180 point $-1 -1 -1 $-1 7.776507174585693e-015 25.399999999999999 -63.5 #
-181 point $-1 -1 -1 $-1 0 25.399999999999999 63.5 #
-182 ellipse-curve $-1 -1 -1 $-1 0 0 0 0 1 0 0 0 63.5 1 I I #
-183 ellipse-curve $-1 -1 -1 $-1 0 44.450000000000003 0 0 1 0 0 0 73.025000000000006 1 I I #
-184 ellipse-curve $-1 -1 -1 $-1 0 25.399999999999999 0 0 1 0 0 0 63.5 1 I I #
End-of-ACIS-data 