2200 0 1 0           
15 SolidWorks 2016 12 ACIS 22.0 NT 24 Wed Mar 01 13:49:21 2017 
1 9.9999999999999995e-007 1e-010 
-0 body $1 -1 -1 $-1 $2 $-1 $-1 F #
-1 name_attrib-gen-attrib $-1 -1 $-1 $-1 $0 2 1 1 1 1 1 1 1 1 1 1 1 1 1 0 1 1 1 @6 endcap #
-2 lump $3 -1 -1 $-1 $-1 $4 $0 F #
-3 rgb_color-st-attrib $-1 -1 $-1 $-1 $2 2 1 2 1 1 1 1 1 1 1 1 1 1 1 0 1 1 1 0.89803921568627454 0.91764705882352937 0.92941176470588238 #
-4 shell $-1 -1 -1 $-1 $-1 $-1 $5 $-1 $2 F #
-5 face $6 -1 -1 $-1 $7 $8 $4 $-1 $9 reversed single F T -2.3865516021919899 -1.8865516021919899 -3.1415926535897931 0 #
-6 integer_attrib-name_attrib-gen-attrib $-1 -1 $-1 $-1 $5 2 1 2 1 1 1 1 1 1 1 1 1 1 1 0 1 1 1 @8 Revolve7 0 #
-7 face $10 -1 -1 $-1 $11 $12 $4 $-1 $13 reversed single F T -1.5707963267948966 1.0514691315285412e-005 1.3987061727561022e-016 3.1415926535897931 #
-8 loop $-1 -1 -1 $-1 $-1 $14 $5 F unknown #
-9 cone-surface $-1 -1 -1 $-1 0 121.23682139135312 0 0 1 0 0 0 50.800000000000011 1 I I 0 1 50.800000000000011 forward I I I I #
-10 integer_attrib-name_attrib-gen-attrib $-1 -1 $-1 $-1 $7 2 1 2 1 1 1 1 1 1 1 1 1 1 1 0 1 1 1 @8 Revolve7 0 #
-11 face $15 -1 -1 $-1 $16 $17 $4 $-1 $18 reversed single F T -7.1551588843421499 -6.6551588843421454 -3.1415926535897931 0 #
-12 loop $-1 -1 -1 $-1 $-1 $19 $7 F unknown #
-13 sphere-surface $-1 -1 -1 $-1 0 25.399999999999999 0 50.800000000000018 1 0 0 0 0 1 forward_v I I I I #
-14 coedge $-1 -1 -1 $-1 $20 $21 $22 $23 reversed $8 $-1 #
-15 integer_attrib-name_attrib-gen-attrib $-1 -1 $-1 $-1 $11 2 1 2 1 1 1 1 1 1 1 1 1 1 1 0 1 1 1 @8 Revolve7 0 #
-16 face $24 -1 -1 $-1 $25 $26 $4 $-1 $27 forward single F T -0.0054466080111800338 1.2946442001821579 0.27615212661273902 2.8654405269770544 #
-17 loop $-1 -1 -1 $-1 $-1 $28 $11 F unknown #
-18 cone-surface $-1 -1 -1 $-1 0 121.23682139135312 0 0 1 0 0 0 6.3500000000000014 1 I I 0 1 6.3500000000000014 forward I I I I #
-19 coedge $-1 -1 -1 $-1 $29 $30 $31 $32 reversed $12 $-1 #
-20 coedge $-1 -1 -1 $-1 $33 $14 $34 $35 forward $8 $-1 #
-21 coedge $-1 -1 -1 $-1 $14 $36 $37 $38 reversed $8 $-1 #
-22 coedge $-1 -1 -1 $-1 $39 $39 $14 $23 forward $40 $-1 #
-23 edge $-1 -1 -1 $-1 $41 -3.1415926535897931 $42 0 $22 $43 forward @7 unknown F #
-24 integer_attrib-name_attrib-gen-attrib $-1 -1 $-1 $-1 $16 2 1 2 1 1 1 1 1 1 1 1 1 1 1 0 1 1 1 @8 Revolve7 0 #
-25 face $44 -1 -1 $-1 $45 $46 $4 $-1 $47 reversed single F T -2.8599939189658778 -1.5707963267948966 -3.1415926535897931 0 #
-26 loop $-1 -1 -1 $-1 $-1 $48 $16 F unknown #
-27 sphere-surface $-1 -1 -1 $-1 0 25.399999999999999 0 53.951557407745042 1 0 0 0 0 1 forward_v I I I I #
-28 coedge $-1 -1 -1 $-1 $49 $50 $51 $52 reversed $17 $-1 #
-29 coedge $-1 -1 -1 $-1 $53 $19 $54 $55 forward $12 $-1 #
-30 coedge $-1 -1 -1 $-1 $19 $56 $33 $57 reversed $12 $-1 #
-31 coedge $-1 -1 -1 $-1 $34 $58 $19 $32 forward $59 $-1 #
-32 edge $-1 -1 -1 $-1 $60 1.5707963267948966 $61 3.1415926535897931 $31 $62 forward @7 unknown F #
-33 coedge $-1 -1 -1 $-1 $36 $20 $30 $57 forward $8 $-1 #
-34 coedge $-1 -1 -1 $-1 $63 $31 $20 $35 reversed $59 $-1 #
-35 edge $-1 -1 -1 $-1 $41 -0.12123682139135311 $61 -0.095836821391353105 $20 $64 forward @7 unknown F #
-36 coedge $-1 -1 -1 $-1 $21 $33 $65 $66 forward $8 $-1 #
-37 coedge $-1 -1 -1 $-1 $58 $63 $21 $38 forward $59 $-1 #
-38 edge $-1 -1 -1 $-1 $42 -0.12123682139135311 $67 -0.095836821391353105 $37 $68 forward @7 unknown F #
-39 coedge $-1 -1 -1 $-1 $22 $22 $63 $69 forward $40 $-1 #
-40 loop $-1 -1 -1 $-1 $70 $39 $71 F unknown #
-41 vertex $-1 -1 -1 $-1 $35 $72 #
-42 vertex $-1 -1 -1 $-1 $23 $73 #
-43 ellipse-curve $-1 -1 -1 $-1 0 0 0 0 1 0 0 0 50.799999999999997 1 I I #
-44 integer_attrib-name_attrib-gen-attrib $-1 -1 $-1 $-1 $25 2 1 2 1 1 1 1 1 1 1 1 1 1 1 0 1 1 1 @8 Revolve7 0 #
-45 face $74 -1 -1 $-1 $75 $76 $4 $-1 $77 forward single F T -1.5886750334248343 -1.3781487176353608 0 3.1415926535897931 #
-46 loop $-1 -1 -1 $-1 $-1 $78 $25 F unknown #
-47 torus-surface $-1 -1 -1 $-1 0 41.274999999999991 0 0 1 0 54.876478898161729 3.1749999999999936 0 0 1 forward_v I I I I #
-48 coedge $-1 -1 -1 $-1 $79 $80 $81 $82 forward $26 $-1 #
-49 coedge $-1 -1 -1 $-1 $83 $28 $84 $85 forward $17 $-1 #
-50 coedge $-1 -1 -1 $-1 $28 $86 $87 $88 reversed $17 $-1 #
-51 coedge $-1 -1 -1 $-1 $56 $53 $28 $52 forward $12 $-1 #
-52 edge $-1 -1 -1 $-1 $89 -3.1415926535897931 $90 -1.5707963267948966 $51 $91 forward @7 unknown F #
-53 coedge $-1 -1 -1 $-1 $51 $29 $92 $93 forward $12 $-1 #
-54 coedge $-1 -1 -1 $-1 $94 $95 $29 $55 reversed $96 $-1 #
-55 edge $-1 -1 -1 $-1 $60 1.3987061727561022e-016 $97 1.4454684956268311 $29 $98 forward @7 unknown F #
-56 coedge $-1 -1 -1 $-1 $30 $51 $99 $100 reversed $12 $-1 #
-57 edge $-1 -1 -1 $-1 $61 -3.1415926535897931 $101 -1.5707963267948966 $33 $102 forward @7 unknown F #
-58 coedge $-1 -1 -1 $-1 $31 $37 $94 $103 forward $59 $-1 #
-59 loop $-1 -1 -1 $-1 $-1 $34 $104 F unknown #
-60 vertex $-1 -1 -1 $-1 $103 $105 #
-61 vertex $-1 -1 -1 $-1 $35 $106 #
-62 ellipse-curve $-1 -1 -1 $-1 0 25.400000000000006 0 0 1 0 0 0 50.800000000000018 1 I I #
-63 coedge $-1 -1 -1 $-1 $37 $34 $39 $69 reversed $59 $-1 #
-64 straight-curve $-1 -1 -1 $-1 6.2212057396685553e-015 121.23682139135312 -50.800000000000011 0 1000 0 I I #
-65 coedge $-1 -1 -1 $-1 $99 $94 $36 $66 reversed $96 $-1 #
-66 edge $-1 -1 -1 $-1 $101 -1.5707963267948966 $67 0 $36 $107 forward @7 unknown F #
-67 vertex $-1 -1 -1 $-1 $38 $108 #
-68 straight-curve $-1 -1 -1 $-1 0 121.23682139135312 50.800000000000011 0 1000 0 I I #
-69 edge $-1 -1 -1 $-1 $42 0 $41 3.1415926535897931 $39 $109 forward @7 unknown F #
-70 loop $-1 -1 -1 $-1 $-1 $110 $71 F unknown #
-71 face $111 -1 -1 $-1 $112 $40 $4 $-1 $113 forward single F F #
-72 point $-1 -1 -1 $-1 6.2212057396685545e-015 0 -50.799999999999997 #
-73 point $-1 -1 -1 $-1 0 0 50.799999999999997 #
-74 integer_attrib-name_attrib-gen-attrib $-1 -1 $-1 $-1 $45 2 1 2 1 1 1 1 1 1 1 1 1 1 1 0 1 1 1 @8 Revolve7 0 #
-75 face $114 -1 -1 $-1 $71 $115 $4 $-1 $116 forward single F T -2.2461662138277561 -1.7755779785336383 0 3.1415926535897931 #
-76 loop $-1 -1 -1 $-1 $-1 $117 $45 F unknown #
-77 cone-surface $-1 -1 -1 $-1 0 121.23682139135312 0 0 1 0 0 0 60.324999999999989 1 I I 0 1 60.324999999999989 forward I I I I #
-78 coedge $-1 -1 -1 $-1 $118 $119 $120 $121 reversed $46 $-1 #
-79 coedge $-1 -1 -1 $-1 $122 $48 $123 $124 forward $26 $-1 #
-80 coedge $-1 -1 -1 $-1 $48 $125 $119 $126 forward $26 $-1 #
-81 coedge $-1 -1 -1 $-1 $127 $128 $48 $82 reversed $129 $-1 #
-82 edge $-1 -1 -1 $-1 $130 0 $131 1.5707963267948966 $48 $132 forward @7 unknown F #
-83 coedge $-1 -1 -1 $-1 $133 $49 $134 $135 forward $17 $-1 #
-84 coedge $-1 -1 -1 $-1 $92 $136 $49 $85 reversed $137 $-1 #
-85 edge $-1 -1 -1 $-1 $89 -0.045435258915572659 $138 -0.042260258915572634 $49 $139 forward @7 unknown F #
-86 coedge $-1 -1 -1 $-1 $50 $133 $140 $141 reversed $17 $-1 #
-87 coedge $-1 -1 -1 $-1 $95 $99 $50 $88 forward $96 $-1 #
-88 edge $-1 -1 -1 $-1 $90 -1.5707963267948966 $142 0 $87 $143 forward @7 unknown F #
-89 vertex $-1 -1 -1 $-1 $93 $144 #
-90 vertex $-1 -1 -1 $-1 $100 $145 #
-91 ellipse-curve $-1 -1 -1 $-1 0 75.801562475780457 0 0 1 0 0 0 6.3500000000000005 1 I I #
-92 coedge $-1 -1 -1 $-1 $146 $84 $53 $93 reversed $137 $-1 #
-93 edge $-1 -1 -1 $-1 $97 1.5707963267948961 $89 3.1415926535897931 $53 $147 forward @7 unknown F #
-94 coedge $-1 -1 -1 $-1 $65 $54 $58 $103 reversed $96 $-1 #
-95 coedge $-1 -1 -1 $-1 $54 $87 $146 $148 forward $96 $-1 #
-96 loop $-1 -1 -1 $-1 $-1 $54 $149 F unknown #
-97 vertex $-1 -1 -1 $-1 $55 $150 #
-98 ellipse-curve $-1 -1 -1 $-1 0 25.399999999999999 0 -1.2246467991473532e-016 0 1 50.800000000000018 0 6.2212057396685561e-015 1 I I #
-99 coedge $-1 -1 -1 $-1 $87 $65 $56 $100 forward $96 $-1 #
-100 edge $-1 -1 -1 $-1 $101 1.3987061727561022e-016 $90 1.4454684956268311 $99 $151 forward @7 unknown F #
-101 vertex $-1 -1 -1 $-1 $57 $152 #
-102 ellipse-curve $-1 -1 -1 $-1 0 25.400000000000006 0 0 1 0 0 0 50.800000000000018 1 I I #
-103 edge $-1 -1 -1 $-1 $67 0 $60 1.5707963267948966 $58 $153 forward @7 unknown F #
-104 face $154 -1 -1 $-1 $-1 $59 $4 $-1 $155 reversed single F T -2.3865516021919899 -1.8865516021919899 0 3.1415926535897931 #
-105 point $-1 -1 -1 $-1 50.800000000000018 25.400000000000006 6.2212057396685561e-015 #
-106 point $-1 -1 -1 $-1 6.2212057396685569e-015 25.400000000000006 -50.800000000000026 #
-107 ellipse-curve $-1 -1 -1 $-1 0 25.400000000000006 0 0 1 0 0 0 50.800000000000018 1 I I #
-108 point $-1 -1 -1 $-1 0 25.400000000000006 50.800000000000026 #
-109 ellipse-curve $-1 -1 -1 $-1 0 0 0 0 1 0 0 0 50.799999999999997 1 I I #
-110 coedge $-1 -1 -1 $-1 $156 $156 $157 $158 reversed $70 $-1 #
-111 integer_attrib-name_attrib-gen-attrib $-1 -1 $-1 $-1 $71 2 1 2 1 1 1 1 1 1 1 1 1 1 1 0 1 1 1 @8 Revolve7 0 #
-112 face $159 -1 -1 $-1 $160 $161 $4 $-1 $162 forward single F T -2.2461662138277561 -1.7755779785336383 -3.1415926535897931 0 #
-113 plane-surface $-1 -1 -1 $-1 -53.974999999999994 0 0 0 -1 0 0 0 -1000 forward_v I I I I #
-114 integer_attrib-name_attrib-gen-attrib $-1 -1 $-1 $-1 $75 2 1 2 1 1 1 1 1 1 1 1 1 1 1 0 1 1 1 @8 Revolve7 0 #
-115 loop $-1 -1 -1 $-1 $-1 $157 $75 F unknown #
-116 cone-surface $-1 -1 -1 $-1 0 121.23682139135312 0 0 1 0 0 0 53.974999999999994 1 I I 0 1 53.974999999999994 forward I I I I #
-117 coedge $-1 -1 -1 $-1 $163 $164 $165 $166 forward $76 $-1 #
-118 coedge $-1 -1 -1 $-1 $167 $78 $168 $169 forward $46 $-1 #
-119 coedge $-1 -1 -1 $-1 $78 $170 $80 $126 reversed $46 $-1 #
-120 coedge $-1 -1 -1 $-1 $171 $172 $78 $121 forward $173 $-1 #
-121 edge $-1 -1 -1 $-1 $174 -3.1415926535897931 $175 -1.5707963267948966 $120 $176 forward @7 unknown F #
-122 coedge $-1 -1 -1 $-1 $177 $79 $178 $179 reversed $26 $-1 #
-123 coedge $-1 -1 -1 $-1 $172 $180 $79 $124 reversed $173 $-1 #
-124 edge $-1 -1 -1 $-1 $131 0.28159873462391871 $181 1.4528246980886044 $79 $182 forward @7 unknown F #
-125 coedge $-1 -1 -1 $-1 $80 $177 $171 $183 reversed $26 $-1 #
-126 edge $-1 -1 -1 $-1 $175 -1.5707963267948966 $130 0 $80 $184 forward @7 unknown F #
-127 coedge $-1 -1 -1 $-1 $185 $81 $170 $186 forward $129 $-1 #
-128 coedge $-1 -1 -1 $-1 $81 $168 $172 $187 reversed $129 $-1 #
-129 loop $-1 -1 -1 $-1 $-1 $168 $188 F unknown #
-130 vertex $-1 -1 -1 $-1 $126 $189 #
-131 vertex $-1 -1 -1 $-1 $124 $190 #
-132 ellipse-curve $-1 -1 -1 $-1 0 40.392693638700408 0 0 1 0 0 0 51.826534556897414 1 I I #
-133 coedge $-1 -1 -1 $-1 $86 $83 $177 $191 forward $17 $-1 #
-134 coedge $-1 -1 -1 $-1 $180 $171 $83 $135 reversed $173 $-1 #
-135 edge $-1 -1 -1 $-1 $138 -3.1415926535897931 $192 -1.5707963267948966 $83 $193 forward @7 unknown F #
-136 coedge $-1 -1 -1 $-1 $84 $178 $180 $194 forward $137 $-1 #
-137 loop $-1 -1 -1 $-1 $-1 $84 $195 F unknown #
-138 vertex $-1 -1 -1 $-1 $85 $196 #
-139 straight-curve $-1 -1 -1 $-1 7.7765071745856941e-016 121.23682139135312 -6.3500000000000014 0 1000 0 I I #
-140 coedge $-1 -1 -1 $-1 $178 $146 $86 $141 forward $137 $-1 #
-141 edge $-1 -1 -1 $-1 $142 -0.045435258915572659 $197 -0.042260258915572634 $140 $198 forward @7 unknown F #
-142 vertex $-1 -1 -1 $-1 $88 $199 #
-143 ellipse-curve $-1 -1 -1 $-1 0 75.801562475780457 0 0 1 0 0 0 6.3500000000000005 1 I I #
-144 point $-1 -1 -1 $-1 7.7765071745856931e-016 75.801562475780457 -6.3500000000000005 #
-145 point $-1 -1 -1 $-1 -6.3500000000000005 75.801562475780457 0 #
-146 coedge $-1 -1 -1 $-1 $140 $92 $95 $148 reversed $137 $-1 #
-147 ellipse-curve $-1 -1 -1 $-1 0 75.801562475780457 0 0 1 0 0 0 6.3500000000000005 1 I I #
-148 edge $-1 -1 -1 $-1 $142 0 $97 1.5707963267948961 $95 $200 forward @7 unknown F #
-149 face $201 -1 -1 $-1 $104 $96 $4 $-1 $202 reversed single F T -1.051469131505074e-005 1.5707963267948966 1.3987061727561022e-016 3.1415926535897931 #
-150 point $-1 -1 -1 $-1 6.3500000000000005 75.801562475780457 3.4994282285635644e-015 #
-151 ellipse-curve $-1 -1 -1 $-1 0 25.399999999999999 0 -0 -0 -1 -50.800000000000018 0 0 1 I I #
-152 point $-1 -1 -1 $-1 -50.800000000000018 25.400000000000006 0 #
-153 ellipse-curve $-1 -1 -1 $-1 0 25.400000000000006 0 0 1 0 0 0 50.800000000000018 1 I I #
-154 integer_attrib-name_attrib-gen-attrib $-1 -1 $-1 $-1 $104 2 1 2 1 1 1 1 1 1 1 1 1 1 1 0 1 1 1 @8 Revolve7 0 #
-155 cone-surface $-1 -1 -1 $-1 0 121.23682139135312 0 0 1 0 0 0 50.800000000000011 1 I I 0 1 50.800000000000011 forward I I I I #
-156 coedge $-1 -1 -1 $-1 $110 $110 $203 $204 reversed $70 $-1 #
-157 coedge $-1 -1 -1 $-1 $205 $206 $110 $158 forward $115 $-1 #
-158 edge $-1 -1 -1 $-1 $207 0 $208 3.1415926535897931 $157 $209 forward @7 unknown F #
-159 integer_attrib-name_attrib-gen-attrib $-1 -1 $-1 $-1 $112 2 1 2 1 1 1 1 1 1 1 1 1 1 1 0 1 1 1 @8 Revolve7 0 #
-160 face $210 -1 -1 $-1 $211 $212 $4 $-1 $213 forward single F F #
-161 loop $-1 -1 -1 $-1 $-1 $214 $112 F unknown #
-162 cone-surface $-1 -1 -1 $-1 0 121.23682139135312 0 0 1 0 0 0 53.974999999999994 1 I I 0 1 53.974999999999994 forward I I I I #
-163 coedge $-1 -1 -1 $-1 $215 $117 $216 $217 forward $76 $-1 #
-164 coedge $-1 -1 -1 $-1 $117 $215 $218 $219 reversed $76 $-1 #
-165 coedge $-1 -1 -1 $-1 $220 $220 $117 $166 reversed $221 $-1 #
-166 edge $-1 -1 -1 $-1 $222 0 $223 3.1415926535897931 $117 $224 forward @7 unknown F #
-167 coedge $-1 -1 -1 $-1 $170 $118 $225 $226 forward $46 $-1 #
-168 coedge $-1 -1 -1 $-1 $128 $185 $118 $169 reversed $129 $-1 #
-169 edge $-1 -1 -1 $-1 $174 -2.8599939189658761 $227 -1.5707963267948966 $118 $228 forward @7 unknown F #
-170 coedge $-1 -1 -1 $-1 $119 $167 $127 $186 reversed $46 $-1 #
-171 coedge $-1 -1 -1 $-1 $134 $120 $125 $183 forward $173 $-1 #
-172 coedge $-1 -1 -1 $-1 $120 $123 $128 $187 forward $173 $-1 #
-173 loop $-1 -1 -1 $-1 $-1 $123 $229 F unknown #
-174 vertex $-1 -1 -1 $-1 $187 $230 #
-175 vertex $-1 -1 -1 $-1 $183 $231 #
-176 ellipse-curve $-1 -1 -1 $-1 0 40.392693638700408 0 0 1 0 0 0 51.826534556897414 1 I I #
-177 coedge $-1 -1 -1 $-1 $125 $122 $133 $191 reversed $26 $-1 #
-178 coedge $-1 -1 -1 $-1 $136 $140 $122 $179 forward $137 $-1 #
-179 edge $-1 -1 -1 $-1 $197 0 $181 1.5707963267948961 $178 $232 forward @7 unknown F #
-180 coedge $-1 -1 -1 $-1 $123 $134 $136 $194 reversed $173 $-1 #
-181 vertex $-1 -1 -1 $-1 $179 $233 #
-182 ellipse-curve $-1 -1 -1 $-1 0 25.399999999999999 0 -1.2246467991473532e-016 0 1 53.951557407745042 0 6.6071602088409636e-015 1 I I #
-183 edge $-1 -1 -1 $-1 $175 0.28159873462391871 $192 1.4528246980886044 $171 $234 forward @7 unknown F #
-184 ellipse-curve $-1 -1 -1 $-1 0 40.392693638700408 0 0 1 0 0 0 51.826534556897414 1 I I #
-185 coedge $-1 -1 -1 $-1 $168 $127 $235 $236 forward $129 $-1 #
-186 edge $-1 -1 -1 $-1 $130 -2.8599939189658778 $237 -1.5707963267948966 $127 $238 forward @7 unknown F #
-187 edge $-1 -1 -1 $-1 $131 1.5707963267948966 $174 3.1415926535897931 $172 $239 forward @7 unknown F #
-188 face $240 -1 -1 $-1 $229 $129 $4 $-1 $241 reversed single F T -2.8599939189658778 -1.5707963267948966 0 3.1415926535897931 #
-189 point $-1 -1 -1 $-1 0 40.392693638700408 51.826534556897414 #
-190 point $-1 -1 -1 $-1 51.826534556897414 40.392693638700408 6.3469199656004117e-015 #
-191 edge $-1 -1 -1 $-1 $192 -1.5707963267948966 $197 0 $133 $242 forward @7 unknown F #
-192 vertex $-1 -1 -1 $-1 $135 $243 #
-193 ellipse-curve $-1 -1 -1 $-1 0 78.976562475780483 0 0 1 0 0 0 6.3500000000000032 1 I I #
-194 edge $-1 -1 -1 $-1 $181 1.5707963267948961 $138 3.1415926535897931 $136 $244 forward @7 unknown F #
-195 face $245 -1 -1 $-1 $149 $137 $4 $-1 $246 reversed single F T -7.1551588843421499 -6.6551588843421454 0 3.1415926535897931 #
-196 point $-1 -1 -1 $-1 7.7765071745856961e-016 78.976562475780483 -6.3500000000000032 #
-197 vertex $-1 -1 -1 $-1 $141 $247 #
-198 straight-curve $-1 -1 -1 $-1 0 121.23682139135312 6.3500000000000014 0 1000 0 I I #
-199 point $-1 -1 -1 $-1 0 75.801562475780457 6.3500000000000005 #
-200 ellipse-curve $-1 -1 -1 $-1 0 75.801562475780457 0 0 1 0 0 0 6.3500000000000005 1 I I #
-201 integer_attrib-name_attrib-gen-attrib $-1 -1 $-1 $-1 $149 2 1 2 1 1 1 1 1 1 1 1 1 1 1 0 1 1 1 @8 Revolve7 0 #
-202 sphere-surface $-1 -1 -1 $-1 0 25.399999999999999 0 50.800000000000018 1 0 0 0 0 1 forward_v I I I I #
-203 coedge $-1 -1 -1 $-1 $248 $214 $156 $204 forward $161 $-1 #
-204 edge $-1 -1 -1 $-1 $208 -3.1415926535897931 $207 0 $203 $249 forward @7 unknown F #
-205 coedge $-1 -1 -1 $-1 $250 $157 $214 $251 forward $115 $-1 #
-206 coedge $-1 -1 -1 $-1 $157 $250 $248 $252 reversed $115 $-1 #
-207 vertex $-1 -1 -1 $-1 $204 $253 #
-208 vertex $-1 -1 -1 $-1 $251 $254 #
-209 ellipse-curve $-1 -1 -1 $-1 0 0 0 0 1 0 0 0 53.974999999999994 1 I I #
-210 integer_attrib-name_attrib-gen-attrib $-1 -1 $-1 $-1 $160 2 1 2 1 1 1 1 1 1 1 1 1 1 1 0 1 1 1 @8 Revolve7 0 #
-211 face $255 -1 -1 $-1 $256 $257 $4 $-1 $258 forward single F T -1.5886750334248343 -1.3781487176353608 -3.1415926535897931 0 #
-212 loop $-1 -1 -1 $-1 $221 $259 $160 F unknown #
-213 plane-surface $-1 -1 -1 $-1 -53.974999999999987 25.399999999999999 0 0 -1 0 0 0 -1000 forward_v I I I I #
-214 coedge $-1 -1 -1 $-1 $203 $260 $205 $251 reversed $161 $-1 #
-215 coedge $-1 -1 -1 $-1 $164 $163 $261 $262 reversed $76 $-1 #
-216 coedge $-1 -1 -1 $-1 $263 $264 $163 $217 reversed $257 $-1 #
-217 edge $-1 -1 -1 $-1 $223 -0.095836821391353105 $265 -0.08313682139135313 $163 $266 forward @7 unknown F #
-218 coedge $-1 -1 -1 $-1 $264 $263 $164 $219 forward $257 $-1 #
-219 edge $-1 -1 -1 $-1 $222 -0.095836821391353105 $267 -0.08313682139135313 $218 $268 forward @7 unknown F #
-220 coedge $-1 -1 -1 $-1 $165 $165 $263 $269 reversed $221 $-1 #
-221 loop $-1 -1 -1 $-1 $-1 $165 $160 F unknown #
-222 vertex $-1 -1 -1 $-1 $269 $270 #
-223 vertex $-1 -1 -1 $-1 $217 $271 #
-224 ellipse-curve $-1 -1 -1 $-1 0 25.400000000000006 0 0 1 0 0 0 60.324999999999989 1 I I #
-225 coedge $-1 -1 -1 $-1 $235 $235 $167 $226 reversed $272 $-1 #
-226 edge $-1 -1 -1 $-1 $227 -3.1415926535897931 $237 0 $167 $273 forward @7 unknown F #
-227 vertex $-1 -1 -1 $-1 $169 $274 #
-228 ellipse-curve $-1 -1 -1 $-1 6.7204304231111043e-015 41.274999999999991 -54.876478898161729 1 0 1.2246467991473532e-016 3.8882535872928426e-016 0 -3.1749999999999972 1 I I #
-229 face $275 -1 -1 $-1 $195 $173 $4 $-1 $276 forward single F T -1.2946442001821588 0.0054466080111810157 0.27615212661273814 2.8654405269770553 #
-230 point $-1 -1 -1 $-1 6.5336751943557588e-015 40.392693638700408 -51.826534556897421 #
-231 point $-1 -1 -1 $-1 -51.826534556897414 40.392693638700408 0 #
-232 ellipse-curve $-1 -1 -1 $-1 0 78.976562475780483 0 0 1 0 0 0 6.3500000000000032 1 I I #
-233 point $-1 -1 -1 $-1 6.3500000000000032 78.976562475780483 3.5622853415294899e-015 #
-234 ellipse-curve $-1 -1 -1 $-1 0 25.399999999999999 0 -0 -0 -1 -53.951557407745042 0 0 1 I I #
-235 coedge $-1 -1 -1 $-1 $225 $225 $185 $236 reversed $272 $-1 #
-236 edge $-1 -1 -1 $-1 $237 0 $227 3.1415926535897931 $185 $277 forward @7 unknown F #
-237 vertex $-1 -1 -1 $-1 $226 $278 #
-238 ellipse-curve $-1 -1 -1 $-1 0 41.274999999999991 54.876478898161729 -1 0 0 0 0 3.1749999999999972 1 I I #
-239 ellipse-curve $-1 -1 -1 $-1 0 40.392693638700408 0 0 1 0 0 0 51.826534556897414 1 I I #
-240 integer_attrib-name_attrib-gen-attrib $-1 -1 $-1 $-1 $188 2 1 2 1 1 1 1 1 1 1 1 1 1 1 0 1 1 1 @8 Revolve7 0 #
-241 torus-surface $-1 -1 -1 $-1 0 41.274999999999991 0 0 1 0 54.876478898161729 3.1749999999999936 0 0 1 forward_v I I I I #
-242 ellipse-curve $-1 -1 -1 $-1 0 78.976562475780483 0 0 1 0 0 0 6.3500000000000032 1 I I #
-243 point $-1 -1 -1 $-1 -6.3500000000000032 78.976562475780483 0 #
-244 ellipse-curve $-1 -1 -1 $-1 0 78.976562475780483 0 0 1 0 0 0 6.3500000000000032 1 I I #
-245 integer_attrib-name_attrib-gen-attrib $-1 -1 $-1 $-1 $195 2 1 2 1 1 1 1 1 1 1 1 1 1 1 0 1 1 1 @8 Revolve7 0 #
-246 cone-surface $-1 -1 -1 $-1 0 121.23682139135312 0 0 1 0 0 0 6.3500000000000014 1 I I 0 1 6.3500000000000014 forward I I I I #
-247 point $-1 -1 -1 $-1 0 78.976562475780483 6.3500000000000032 #
-248 coedge $-1 -1 -1 $-1 $260 $203 $206 $252 forward $161 $-1 #
-249 ellipse-curve $-1 -1 -1 $-1 0 0 0 0 1 0 0 0 53.974999999999994 1 I I #
-250 coedge $-1 -1 -1 $-1 $206 $205 $259 $279 reversed $115 $-1 #
-251 edge $-1 -1 -1 $-1 $208 -0.12123682139135311 $280 -0.095836821391353105 $205 $281 forward @7 unknown F #
-252 edge $-1 -1 -1 $-1 $207 -0.12123682139135311 $282 -0.095836821391353105 $248 $283 forward @7 unknown F #
-253 point $-1 -1 -1 $-1 0 0 53.974999999999994 #
-254 point $-1 -1 -1 $-1 6.6100310983978381e-015 0 -53.974999999999994 #
-255 integer_attrib-name_attrib-gen-attrib $-1 -1 $-1 $-1 $211 2 1 2 1 1 1 1 1 1 1 1 1 1 1 0 1 1 1 @8 Revolve7 0 #
-256 face $284 -1 -1 $-1 $188 $285 $4 $-1 $286 forward single F F #
-257 loop $-1 -1 -1 $-1 $-1 $216 $211 F unknown #
-258 cone-surface $-1 -1 -1 $-1 0 121.23682139135312 0 0 1 0 0 0 60.324999999999989 1 I I 0 1 60.324999999999989 forward I I I I #
-259 coedge $-1 -1 -1 $-1 $287 $287 $250 $279 forward $212 $-1 #
-260 coedge $-1 -1 -1 $-1 $214 $248 $287 $288 reversed $161 $-1 #
-261 coedge $-1 -1 -1 $-1 $289 $289 $215 $262 forward $285 $-1 #
-262 edge $-1 -1 -1 $-1 $267 0 $265 3.1415926535897931 $261 $290 forward @7 unknown F #
-263 coedge $-1 -1 -1 $-1 $218 $216 $220 $269 forward $257 $-1 #
-264 coedge $-1 -1 -1 $-1 $216 $218 $289 $291 reversed $257 $-1 #
-265 vertex $-1 -1 -1 $-1 $217 $292 #
-266 straight-curve $-1 -1 -1 $-1 7.387681815856407e-015 121.23682139135312 -60.324999999999989 0 1000 0 I I #
-267 vertex $-1 -1 -1 $-1 $291 $293 #
-268 straight-curve $-1 -1 -1 $-1 0 121.23682139135312 60.324999999999989 0 1000 0 I I #
-269 edge $-1 -1 -1 $-1 $223 -3.1415926535897931 $222 0 $263 $294 forward @7 unknown F #
-270 point $-1 -1 -1 $-1 0 25.400000000000006 60.324999999999989 #
-271 point $-1 -1 -1 $-1 7.387681815856407e-015 25.400000000000006 -60.324999999999989 #
-272 loop $-1 -1 -1 $-1 $-1 $235 $256 F unknown #
-273 ellipse-curve $-1 -1 -1 $-1 0 38.099999999999994 0 0 1 0 0 0 54.876478898161729 1 I I #
-274 point $-1 -1 -1 $-1 6.7204304231111043e-015 38.099999999999994 -54.876478898161729 #
-275 integer_attrib-name_attrib-gen-attrib $-1 -1 $-1 $-1 $229 2 1 2 1 1 1 1 1 1 1 1 1 1 1 0 1 1 1 @8 Revolve7 0 #
-276 sphere-surface $-1 -1 -1 $-1 0 25.399999999999999 0 53.951557407745042 1 0 0 0 0 1 forward_v I I I I #
-277 ellipse-curve $-1 -1 -1 $-1 0 38.099999999999994 0 0 1 0 0 0 54.876478898161729 1 I I #
-278 point $-1 -1 -1 $-1 0 38.099999999999994 54.876478898161729 #
-279 edge $-1 -1 -1 $-1 $282 0 $280 3.1415926535897931 $259 $295 forward @7 unknown F #
-280 vertex $-1 -1 -1 $-1 $251 $296 #
-281 straight-curve $-1 -1 -1 $-1 6.6100310983978381e-015 121.23682139135312 -53.974999999999994 0 1000 0 I I #
-282 vertex $-1 -1 -1 $-1 $288 $297 #
-283 straight-curve $-1 -1 -1 $-1 0 121.23682139135312 53.974999999999994 0 1000 0 I I #
-284 integer_attrib-name_attrib-gen-attrib $-1 -1 $-1 $-1 $256 2 1 2 1 1 1 1 1 1 1 1 1 1 1 0 1 1 1 @8 Revolve7 0 #
-285 loop $-1 -1 -1 $-1 $272 $261 $256 F unknown #
-286 plane-surface $-1 -1 -1 $-1 -54.876478898161729 38.099999999999994 0 0 1 0 0 0 1000 forward_v I I I I #
-287 coedge $-1 -1 -1 $-1 $259 $259 $260 $288 forward $212 $-1 #
-288 edge $-1 -1 -1 $-1 $280 -3.1415926535897931 $282 0 $287 $298 forward @7 unknown F #
-289 coedge $-1 -1 -1 $-1 $261 $261 $264 $291 forward $285 $-1 #
-290 ellipse-curve $-1 -1 -1 $-1 0 38.099999999999994 0 0 1 0 0 0 60.324999999999989 1 I I #
-291 edge $-1 -1 -1 $-1 $265 -3.1415926535897931 $267 0 $289 $299 forward @7 unknown F #
-292 point $-1 -1 -1 $-1 7.387681815856407e-015 38.099999999999994 -60.324999999999989 #
-293 point $-1 -1 -1 $-1 0 38.099999999999994 60.324999999999989 #
-294 ellipse-curve $-1 -1 -1 $-1 0 25.400000000000006 0 0 1 0 0 0 60.324999999999989 1 I I #
-295 ellipse-curve $-1 -1 -1 $-1 0 25.400000000000006 0 0 1 0 0 0 53.974999999999987 1 I I #
-296 point $-1 -1 -1 $-1 6.6100310983978374e-015 25.400000000000006 -53.974999999999987 #
-297 point $-1 -1 -1 $-1 0 25.400000000000006 53.974999999999987 #
-298 ellipse-curve $-1 -1 -1 $-1 0 25.400000000000006 0 0 1 0 0 0 53.974999999999987 1 I I #
-299 ellipse-curve $-1 -1 -1 $-1 0 38.099999999999994 0 0 1 0 0 0 60.324999999999989 1 I I #
End-of-ACIS-data 